<?xml version="1.0" encoding="UTF-8"?>
<svg version="1.1" xmlns="http://www.w3.org/2000/svg" width="1000" height="1000">
<path d="M0 0 C0.9590625 0.73734375 1.918125 1.4746875 2.90625 2.234375 C14.6169233 11.51080722 24.11101375 22.09108424 33 34 C33.63679687 34.84175781 34.27359375 35.68351562 34.9296875 36.55078125 C54 62.69556452 54 62.69556452 54 75 C59.02748924 73.79202204 63.9627265 72.42963019 68.89916992 70.89355469 C105.70972571 59.46671023 144.00989594 56.25863771 181 69 C182.04285156 69.35707031 183.08570313 69.71414062 184.16015625 70.08203125 C196.87482736 74.9249006 208.17339009 83.24829424 219.23046875 91.046875 C220.84257333 92.18376116 222.465397 93.30625015 224.11328125 94.390625 C227.26643597 96.48806716 229.71869671 98.72260335 232.1328125 101.6015625 C235.45762047 105.45951187 239.00321764 109.00406036 242.66064453 112.54467773 C255.14884188 124.6510089 255.14884188 124.6510089 259.57421875 132.51171875 C261.1609559 135.28090112 262.99774433 137.71682003 264.9375 140.25 C287.90052365 171.65204588 290.76645773 212.65794262 284.98999023 250.05151367 C282.99692694 261.4581892 279.51184659 272.37423136 275.85058594 283.33740234 C274.72536766 286.85968437 273.83659288 290.39920077 273 294 C273.60320068 294.14791992 274.20640137 294.29583984 274.82788086 294.44824219 C298.49563407 300.46028245 318.80160936 317.39020875 336 334 C336.8496936 334.8048584 336.8496936 334.8048584 337.71655273 335.62597656 C342.10713651 339.87317211 345.77466587 344.4020685 349.3125 349.375 C349.87372559 350.16173096 350.43495117 350.94846191 351.01318359 351.7590332 C361.46071492 366.60450884 369.58930192 382.44838077 377 399 C377.2980957 399.66064453 377.59619141 400.32128906 377.90332031 401.00195312 C391.31473433 431.54347876 390.8578727 475.64565933 378.94921875 506.421875 C368.04672209 532.61610875 354.49428406 556.28732319 335 577 C334.195625 577.88365234 334.195625 577.88365234 333.375 578.78515625 C318.01794723 595.02523955 294.9790598 610.92790928 273 616 C273.29132812 616.97195313 273.58265625 617.94390625 273.8828125 618.9453125 C275.0187719 622.75392409 276.1315501 626.56903276 277.23828125 630.38623047 C277.74615392 632.12894997 278.2591805 633.87017574 278.77734375 635.60986328 C290.71435987 675.80821049 292.32263609 720.50776691 272.07421875 758.34765625 C269.0441507 763.79037142 265.59235772 768.915655 262 774 C261.401875 774.88429688 260.80375 775.76859375 260.1875 776.6796875 C253.71365719 786.18814413 245.90552299 794.3279868 237.82226562 802.47290039 C236.77672535 803.52996759 235.73566779 804.59148809 234.69921875 805.6574707 C228.70427292 811.8222101 222.91941341 817.16157049 215.44555664 821.55273438 C212.91374689 823.05104407 210.56188989 824.70248796 208.1875 826.4375 C176.43252264 848.65107571 137.65614515 852.99681535 99.90234375 847.12109375 C86.31625772 844.71293513 72.88109647 840.92298952 60 836 C58.01043215 835.60919203 56.01193023 835.25149128 54 835 C53.87625 835.53625 53.7525 836.0725 53.625 836.625 C44.61027625 870.88095027 15.09934607 901.92475874 -14.3359375 920.0546875 C-17.21237886 921.72423039 -20.10572855 923.35035556 -23.03076172 924.93310547 C-24.41604007 925.68362201 -25.79755843 926.44109974 -27.17626953 927.20361328 C-65.51806917 948.39228802 -108.17040323 955.02572944 -151.01586914 943.31835938 C-176.23308043 935.72642957 -201.1636323 921.1339412 -221 904 C-221.9796875 903.15566406 -222.959375 902.31132813 -223.96875 901.44140625 C-235.84880293 890.99432595 -245.17564597 878.94209865 -253.84423828 865.75537109 C-254.80760113 864.29221544 -255.79013937 862.84170779 -256.77734375 861.39453125 C-261.8524207 853.57325881 -264.7949228 844.70491381 -268 836 C-273.17383836 835.65183873 -277.27671436 836.9331362 -282.0625 838.6875 C-320.88420391 852.19140115 -366.41459102 854.94018848 -404.42431641 837.17993164 C-412.5019789 833.19791636 -419.71188183 828.26473226 -427 823 C-428.59903762 821.95047686 -430.20268622 820.90791806 -431.8125 819.875 C-440.25519058 814.24551811 -447.35089546 806.89015084 -454.52783203 799.76733398 C-455.59174473 798.71496788 -456.66011614 797.66709021 -457.73291016 796.6237793 C-464.27403731 790.26140967 -469.5996396 784.06371906 -474 776 C-475.39959112 773.88945418 -476.88621696 771.86303575 -478.375 769.8125 C-500.99386661 737.6254061 -505.18218474 697.49588862 -498.66455078 659.3203125 C-496.32852223 647.64875177 -493.37384988 635.36380983 -488.92407227 624.33276367 C-487.8350207 621.58351989 -487.40756119 618.92085519 -487 616 C-487.804375 615.814375 -487.804375 615.814375 -488.625 615.625 C-507.46918978 610.66600269 -524.51977175 598.67019972 -539 586 C-539.78503906 585.31550781 -539.78503906 585.31550781 -540.5859375 584.6171875 C-548.17261818 577.95658052 -554.85504162 571.04534366 -561 563 C-561.73734375 562.07832031 -562.4746875 561.15664063 -563.234375 560.20703125 C-573.06030522 547.65355833 -580.1474393 533.33286366 -587 519 C-587.31743164 518.34531738 -587.63486328 517.69063477 -587.96191406 517.01611328 C-603.65733447 484.36158989 -605.73060098 441.31349654 -594 407 C-585.09037863 383.13747821 -572.67629787 360.30654322 -556 341 C-555.15566406 340.0203125 -554.31132813 339.040625 -553.44140625 338.03125 C-536.19880879 318.4276067 -513.71932505 302.5417563 -489 294 C-488.34 294 -487.68 294 -487 294 C-488.2472412 287.86607137 -489.89758824 281.99661972 -491.875 276.0625 C-504.6034811 236.59099832 -506.13678909 191.67642122 -487.109375 153.91015625 C-484.16330276 148.31343583 -480.6853672 143.13292626 -477 138 C-475.74908359 136.20897304 -474.49904169 134.41733488 -473.25 132.625 C-472.71890625 131.87476563 -472.1878125 131.12453125 -471.640625 130.3515625 C-470.4772371 128.68403985 -469.36229321 126.9822439 -468.28271484 125.25927734 C-465.74595645 121.63727472 -462.94760987 118.62402938 -459.8359375 115.5 C-459.24382477 114.90123047 -458.65171204 114.30246094 -458.04165649 113.68554688 C-456.79195783 112.42577016 -455.53957711 111.16864896 -454.28466797 109.9140625 C-452.390864 108.01590051 -450.51363724 106.102341 -448.63671875 104.1875 C-442.8485358 98.34643509 -437.39285997 92.96582369 -430.04223633 89.0949707 C-427.94107541 87.96840684 -426.17170787 86.67443778 -424.3125 85.1875 C-394.11982445 62.13457538 -355.23993962 57.5804893 -318.375 62.0625 C-304.58818575 63.93701236 -290.56617357 67.50796004 -277.65234375 72.71875 C-274.13843673 73.9514361 -271.68178564 74.27613392 -268 74 C-267.81526123 73.4831665 -267.63052246 72.96633301 -267.44018555 72.43383789 C-262.72866431 59.46749094 -257.04937583 48.19875541 -249 37 C-248.59023926 36.4220166 -248.18047852 35.8440332 -247.75830078 35.24853516 C-232.13822819 13.40858934 -212.25543747 -3.16227709 -188.78710938 -16.01611328 C-187.01052192 -16.9942072 -185.24737837 -17.9937647 -183.484375 -18.99609375 C-123.79152322 -52.46483672 -52.94916724 -41.21301161 0 0 Z " fill="#000000" transform="translate(605,46)"/>
</svg>
